<svg width="21" height="20" viewBox="0 0 21 20" fill="none" xmlns="http://www.w3.org/2000/svg">
<path d="M6.319 0H14.8264C18.0673 0 20.7006 2.6 20.7006 5.8V14.2C20.7006 15.7383 20.0817 17.2135 18.9801 18.3012C17.8785 19.3889 16.3843 20 14.8264 20H6.319C3.07807 20 0.444824 17.4 0.444824 14.2V5.8C0.444824 4.26174 1.06371 2.78649 2.16533 1.69878C3.26695 0.61107 4.76107 0 6.319 0ZM6.11644 2C5.14945 2 4.22207 2.37928 3.5383 3.05442C2.85454 3.72955 2.4704 4.64522 2.4704 5.6V14.4C2.4704 16.39 4.10099 18 6.11644 18H15.029C15.996 18 16.9234 17.6207 17.6071 16.9456C18.2909 16.2705 18.675 15.3548 18.675 14.4V5.6C18.675 3.61 17.0444 2 15.029 2H6.11644ZM15.8898 3.5C16.2256 3.5 16.5476 3.6317 16.785 3.86612C17.0225 4.10054 17.1558 4.41848 17.1558 4.75C17.1558 5.08152 17.0225 5.39946 16.785 5.63388C16.5476 5.8683 16.2256 6 15.8898 6C15.5541 6 15.2321 5.8683 14.9947 5.63388C14.7572 5.39946 14.6239 5.08152 14.6239 4.75C14.6239 4.41848 14.7572 4.10054 14.9947 3.86612C15.2321 3.6317 15.5541 3.5 15.8898 3.5ZM10.5727 5C11.9157 5 13.2038 5.52678 14.1535 6.46447C15.1031 7.40215 15.6367 8.67392 15.6367 10C15.6367 11.3261 15.1031 12.5979 14.1535 13.5355C13.2038 14.4732 11.9157 15 10.5727 15C9.22967 15 7.94163 14.4732 6.99196 13.5355C6.04229 12.5979 5.50877 11.3261 5.50877 10C5.50877 8.67392 6.04229 7.40215 6.99196 6.46447C7.94163 5.52678 9.22967 5 10.5727 5ZM10.5727 7C9.76688 7 8.99406 7.31607 8.42426 7.87868C7.85445 8.44129 7.53434 9.20435 7.53434 10C7.53434 10.7956 7.85445 11.5587 8.42426 12.1213C8.99406 12.6839 9.76688 13 10.5727 13C11.3785 13 12.1514 12.6839 12.7212 12.1213C13.291 11.5587 13.6111 10.7956 13.6111 10C13.6111 9.20435 13.291 8.44129 12.7212 7.87868C12.1514 7.31607 11.3785 7 10.5727 7Z" fill="white"/>
</svg>
