<svg width="23" height="20" viewBox="0 0 23 20" fill="none" xmlns="http://www.w3.org/2000/svg">
<path d="M5.35687 2.22321C5.35657 2.81255 5.11918 3.37763 4.69691 3.79415C4.27465 4.21066 3.7021 4.44449 3.10523 4.4442C2.50835 4.4439 1.93604 4.20951 1.5142 3.79257C1.09236 3.37564 0.855537 2.81033 0.855835 2.22099C0.856134 1.63165 1.09353 1.06657 1.51579 0.650052C1.93806 0.233536 2.5106 -0.00029439 3.10748 2.78164e-07C3.70435 0.000294947 4.27666 0.234691 4.6985 0.651623C5.12034 1.06856 5.35717 1.63387 5.35687 2.22321ZM5.42438 6.08966H0.923351V20H5.42438V6.08966ZM12.536 6.08966H8.05749V20H12.491V12.7004C12.491 8.63397 17.8585 8.25621 17.8585 12.7004V20H22.3033V11.1894C22.3033 4.3342 14.3589 4.58975 12.491 7.95622L12.536 6.08966Z" fill="white"/>
</svg>
