<svg width="161" height="86" viewBox="0 0 161 86" fill="none" xmlns="http://www.w3.org/2000/svg">
<g filter="url(#filter0_d_243_242)">
<g filter="url(#filter1_d_243_242)">
<path d="M18 18V67.3573H142.286V18H18ZM40.8323 37.1121H44.093V46.9716H40.8323C40.3665 43.8774 38.3576 43.0308 34.8131 43.0308V57.6627H36.7273C38.3649 57.6627 39.6532 57.333 40.5848 56.6812C41.5529 56.0594 43.2778 53.4896 44.0857 50.7251H47.4556L46.7933 60.2174H23.6189V57.6477C24.7252 57.5428 25.4967 57.1982 25.9262 56.6138C26.3629 56.0294 26.5812 55.1004 26.5812 53.8268V30.9986C26.5812 28.8035 25.3002 27.6572 23.5534 27.5898V25.0125H46.8151L46.8297 33.2762H43.8019C43.8019 33.2762 42.8702 30.5941 40.8614 28.8259C38.8453 27.0578 34.8131 27.5898 34.8131 27.5898V40.4535C38.3576 40.4535 40.3665 39.8991 40.8323 37.1121ZM59.7561 35.1567L63.7083 39.3297C66.4085 42.1767 68.1917 44.3868 69.0579 45.9677C69.9604 47.5485 70.4117 49.5488 70.4117 51.4668C70.4117 54.3212 69.4436 56.6363 67.5076 58.4194C65.5788 60.21 63.0896 61.094 60.0545 61.094C57.2232 61.094 54.29 60.3598 51.2477 58.8839L50.891 50.785H54.7922C55.3017 52.658 56.0077 54.7333 56.852 55.9545C57.9219 57.5053 59.0865 58.277 60.3602 58.277C61.2918 58.277 62.0561 57.9024 62.6529 57.1457C63.2934 56.389 63.6064 55.445 63.6064 54.3138C63.6064 52.5606 62.3763 50.343 59.9089 47.6683L55.4546 42.8285C52.3176 39.4271 50.7527 36.0333 50.7527 33.1189C50.7527 30.5416 51.6189 28.4289 53.3511 26.7806C55.1198 25.1024 57.3542 24.2633 60.0545 24.2633C63.5263 24.2633 66.6269 25.477 69.3636 27.9194V33.3286H65.244C63.8902 29.1181 62.1216 27.0728 59.9089 27.0728C59.0428 27.0728 58.3368 27.365 57.8055 27.9419C57.3033 28.4963 57.0558 29.2305 57.0558 30.1595C57.0558 31.598 57.9583 33.2687 59.7561 35.1567ZM73.5923 27.6722V25.0949H87.4431C91.5918 25.0949 94.7506 26.1438 96.9268 28.2416C98.8338 30.1071 99.7872 32.5495 99.7872 35.5762C99.7872 38.603 98.8701 40.8431 97.0287 42.7086C95.1873 44.5292 92.8145 45.4432 89.9032 45.4432C87.494 45.4432 86.2858 44.8588 86.2858 43.6901C86.2858 42.9334 86.657 42.5513 87.3921 42.5513C88.7314 42.5513 89.6557 42.0868 90.1506 41.1578C90.6892 40.1913 90.9585 38.5056 90.9585 36.0932C90.9585 32.6169 90.4199 30.2569 89.35 29.0207C88.4111 28.0168 86.8099 27.5748 84.5317 27.6722V54.1714C84.5317 56.449 85.6526 57.6327 87.8943 57.7376V60.3223H73.5923V57.7376C75.3973 57.4979 76.2999 56.2092 76.2999 53.8642V31.2908C76.2999 29.0882 75.3973 27.882 73.5923 27.6722ZM136.732 60.21H123.085V57.6252C124.221 57.0034 124.978 56.2617 125.342 55.4076C125.611 54.7483 125.742 53.6844 125.742 52.201C125.742 51.9912 125.713 51.257 125.647 49.9834L124.788 33.6583C124.359 35.7561 123.267 39.7493 121.426 45.638L120.174 49.6687C118.638 54.5984 117.736 58.1047 117.466 60.21H114.606C114.468 59.0037 114.089 57.2281 113.449 54.8906L110.239 43.0608L107.626 33.0889L106.622 52.3583C106.622 54.044 106.847 55.2877 107.277 56.0744C107.713 56.8311 108.499 57.348 109.635 57.6252V60.21H101.207V57.6252C102.145 57.348 102.793 56.7636 103.164 55.8721C103.528 54.9431 103.812 53.1974 104.016 50.6502L105.071 37.4268C105.239 35.329 105.319 33.5909 105.319 32.2123C105.319 29.4178 104.402 27.8745 102.56 27.5598V25.02H114.002C113.9 27.2901 114.308 29.9348 115.21 33.0365L119.017 46.11L122.43 34.0704C123.537 30.0771 124.002 27.0878 123.835 25.02H135.131V27.5598C134.098 27.7995 133.406 28.0917 133.071 28.4364C132.635 28.8859 132.424 29.695 132.424 30.8638C132.424 31.628 132.518 33.3286 132.722 35.9808L133.974 52.5157C134.207 55.475 135.131 57.1757 136.732 57.6252V60.21Z" fill="#A90533"/>
<path d="M136.732 57.6252V60.21H123.085V57.6252C124.221 57.0034 124.978 56.2617 125.342 55.4076C125.611 54.7483 125.742 53.6844 125.742 52.201C125.742 51.9912 125.713 51.257 125.647 49.9834L124.789 33.6583C124.359 35.7561 123.267 39.7493 121.426 45.638L120.174 49.6687C118.638 54.5985 117.736 58.1047 117.466 60.21H114.606C114.468 59.0038 114.089 57.2282 113.449 54.8906L110.239 43.0608L107.626 33.0889L106.622 52.3583C106.622 54.044 106.847 55.2877 107.277 56.0744C107.713 56.8311 108.499 57.348 109.635 57.6252V60.21H101.207V57.6252C102.145 57.348 102.793 56.7636 103.164 55.8721C103.528 54.9431 103.812 53.1975 104.016 50.6502L105.071 37.4268C105.239 35.329 105.319 33.5909 105.319 32.2123C105.319 29.4178 104.402 27.8745 102.56 27.5598V25.02H114.002C113.9 27.2901 114.308 29.9348 115.21 33.0365L119.017 46.11L122.43 34.0704C123.537 30.0771 124.002 27.0878 123.835 25.02H135.131V27.5598C134.098 27.7996 133.406 28.0917 133.071 28.4364C132.635 28.8859 132.424 29.695 132.424 30.8638C132.424 31.628 132.518 33.3287 132.722 35.9808L133.974 52.5157C134.207 55.475 135.131 57.1757 136.732 57.6252Z" fill="white"/>
<path d="M47.4557 50.7253L46.7934 60.2176H23.619V57.6479C24.7253 57.543 25.4968 57.1983 25.9262 56.614C26.3629 56.0296 26.5813 55.1006 26.5813 53.8269V30.9988C26.5813 28.8037 25.3003 27.6574 23.5535 27.5899V25.0127H46.8152L46.8297 33.2764H43.8019C43.8019 33.2764 42.8703 30.5942 40.8615 28.8261C38.8454 27.058 34.8131 27.5899 34.8131 27.5899V40.4537C38.3577 40.4537 40.3665 39.8993 40.8324 37.1123H44.0931V46.9718H40.8324C40.3665 43.8776 38.3577 43.031 34.8131 43.031V57.6628H36.7273C38.365 57.6628 39.6533 57.3332 40.5849 56.6814C41.5529 56.0596 43.2779 53.4898 44.0858 50.7253H47.4557Z" fill="white"/>
<path d="M70.4116 51.4667C70.4116 54.3211 69.4436 56.6361 67.5075 58.4192C65.5788 60.2098 63.0895 61.0939 60.0545 61.0939C57.2232 61.0939 54.29 60.3597 51.2476 58.8837L50.891 50.7849H54.7922C55.3017 52.6579 56.0077 54.7332 56.852 55.9544C57.9219 57.5052 59.0864 58.2769 60.3602 58.2769C61.2918 58.2769 62.056 57.9023 62.6528 57.1456C63.2933 56.3889 63.6063 55.4449 63.6063 54.3136C63.6063 52.5605 62.3763 50.3428 59.9089 47.6682L55.4545 42.8284C52.3175 39.427 50.7527 36.0331 50.7527 33.1187C50.7527 30.5415 51.6188 28.4287 53.3511 26.7805C55.1197 25.1023 57.3542 24.2632 60.0545 24.2632C63.5263 24.2632 66.6268 25.4769 69.3635 27.9193V33.3285H65.244C63.8902 29.118 62.1215 27.0727 59.9089 27.0727C59.0428 27.0727 58.3368 27.3649 57.8054 27.9418C57.3032 28.4962 57.0558 29.2304 57.0558 30.1594C57.0558 31.5979 57.9583 33.2686 59.756 35.1566L63.7082 39.3296C66.4085 42.1766 68.1917 44.3867 69.0578 45.9675C69.9603 47.5483 70.4116 49.5487 70.4116 51.4667Z" fill="white"/>
<path d="M99.7872 35.5765C99.7872 38.4759 98.8701 40.8434 97.0287 42.7089C95.1873 44.5295 92.8145 45.4435 89.9032 45.4435C87.494 45.4435 86.2858 44.8591 86.2858 43.6904C86.2858 42.9337 86.657 42.5516 87.3921 42.5516C88.7313 42.5516 89.6557 42.0871 90.1506 41.1581C90.6892 40.1916 90.9585 38.5059 90.9585 36.0935C90.9585 32.6172 90.4199 30.2572 89.35 29.021C88.4111 28.0171 86.8098 27.5751 84.5317 27.6725V54.1717C84.5317 56.4493 85.6526 57.633 87.8943 57.7379V60.3226H73.5923V57.7379C75.3973 57.4981 76.2998 56.2095 76.2998 53.8645V31.2911C76.2998 29.0885 75.3973 27.8822 73.5923 27.6725V25.0952H87.4431C91.5917 25.0952 94.7506 26.1441 96.9268 28.2419C98.8337 30.1074 99.7872 32.5498 99.7872 35.5765Z" fill="white"/>
</g>
</g>
<defs>
<filter id="filter0_d_243_242" x="0" y="0" width="160.286" height="85.3574" filterUnits="userSpaceOnUse" color-interpolation-filters="sRGB">
<feFlood flood-opacity="0" result="BackgroundImageFix"/>
<feColorMatrix in="SourceAlpha" type="matrix" values="0 0 0 0 0 0 0 0 0 0 0 0 0 0 0 0 0 0 127 0" result="hardAlpha"/>
<feOffset/>
<feGaussianBlur stdDeviation="9"/>
<feComposite in2="hardAlpha" operator="out"/>
<feColorMatrix type="matrix" values="0 0 0 0 0 0 0 0 0 0 0 0 0 0 0 0 0 0 0.17 0"/>
<feBlend mode="normal" in2="BackgroundImageFix" result="effect1_dropShadow_243_242"/>
<feBlend mode="normal" in="SourceGraphic" in2="effect1_dropShadow_243_242" result="shape"/>
</filter>
<filter id="filter1_d_243_242" x="0" y="0" width="160.286" height="85.3574" filterUnits="userSpaceOnUse" color-interpolation-filters="sRGB">
<feFlood flood-opacity="0" result="BackgroundImageFix"/>
<feColorMatrix in="SourceAlpha" type="matrix" values="0 0 0 0 0 0 0 0 0 0 0 0 0 0 0 0 0 0 127 0" result="hardAlpha"/>
<feOffset/>
<feGaussianBlur stdDeviation="9"/>
<feComposite in2="hardAlpha" operator="out"/>
<feColorMatrix type="matrix" values="0 0 0 0 0 0 0 0 0 0 0 0 0 0 0 0 0 0 0.17 0"/>
<feBlend mode="normal" in2="BackgroundImageFix" result="effect1_dropShadow_243_242"/>
<feBlend mode="normal" in="SourceGraphic" in2="effect1_dropShadow_243_242" result="shape"/>
</filter>
</defs>
</svg>
