<svg width="35" height="35" viewBox="0 0 35 35" fill="none" xmlns="http://www.w3.org/2000/svg">
<circle cx="17.5" cy="17.5" r="16.5" stroke="#5C5B5B" stroke-width="2"/>
<path d="M12.9648 24.98V22.62L19.0048 17.26C19.4582 16.86 19.7782 16.4833 19.9648 16.13C20.1515 15.7767 20.2448 15.4467 20.2448 15.14C20.2448 14.7 20.1548 14.31 19.9748 13.97C19.7948 13.6233 19.5415 13.3533 19.2148 13.16C18.8882 12.96 18.5048 12.86 18.0648 12.86C17.6048 12.86 17.1982 12.9667 16.8448 13.18C16.4982 13.3867 16.2282 13.6633 16.0348 14.01C15.8415 14.35 15.7515 14.72 15.7648 15.12H12.9648C12.9648 14.1333 13.1815 13.28 13.6148 12.56C14.0482 11.84 14.6515 11.2833 15.4248 10.89C16.1982 10.4967 17.0982 10.3 18.1248 10.3C19.0648 10.3 19.9048 10.5067 20.6448 10.92C21.3915 11.3267 21.9782 11.8967 22.4048 12.63C22.8315 13.3633 23.0448 14.2133 23.0448 15.18C23.0448 15.8933 22.9448 16.4867 22.7448 16.96C22.5448 17.4267 22.2482 17.86 21.8548 18.26C21.4615 18.6533 20.9782 19.1 20.4048 19.6L16.5048 23.02L16.2848 22.42H23.0448V24.98H12.9648Z" fill="#5C5B5B"/>
</svg>
