<svg width="35" height="35" viewBox="0 0 35 35" fill="none" xmlns="http://www.w3.org/2000/svg">
<circle cx="17.5" cy="17.5" r="16.5" stroke="#5C5B5B" stroke-width="2"/>
<path d="M17.6918 25.26C16.9718 25.26 16.2851 25.1167 15.6318 24.83C14.9785 24.5367 14.4085 24.1267 13.9218 23.6C13.4418 23.0733 13.0985 22.4533 12.8918 21.74L15.5318 21.04C15.6718 21.5667 15.9451 21.9767 16.3518 22.27C16.7651 22.5567 17.2118 22.7 17.6918 22.7C18.1051 22.7 18.4818 22.6 18.8218 22.4C19.1685 22.2 19.4418 21.93 19.6418 21.59C19.8485 21.25 19.9518 20.8733 19.9518 20.46C19.9518 19.84 19.7385 19.31 19.3118 18.87C18.8918 18.4233 18.3518 18.2 17.6918 18.2C17.4918 18.2 17.2985 18.23 17.1118 18.29C16.9251 18.3433 16.7451 18.42 16.5718 18.52L15.3518 16.38L19.9318 12.58L20.1318 13.16H13.4518V10.6H22.4518V13.16L18.8918 16.6L18.8718 15.84C19.6985 15.9667 20.3951 16.2567 20.9618 16.71C21.5351 17.1567 21.9685 17.71 22.2618 18.37C22.5618 19.0233 22.7118 19.72 22.7118 20.46C22.7118 21.3667 22.4818 22.1833 22.0218 22.91C21.5618 23.63 20.9518 24.2033 20.1918 24.63C19.4318 25.05 18.5985 25.26 17.6918 25.26Z" fill="#5C5B5B"/>
</svg>
