<svg width="35" height="35" viewBox="0 0 35 35" fill="none" xmlns="http://www.w3.org/2000/svg">
<circle cx="17.5" cy="17.5" r="16.5" stroke="#A8A8A8" stroke-width="2"/>
<path d="M17.7913 25.3C17.0647 25.3 16.3813 25.15 15.7413 24.85C15.108 24.55 14.5613 24.1333 14.1013 23.6C13.6413 23.0667 13.3113 22.4467 13.1113 21.74L15.7313 21.04C15.818 21.38 15.9713 21.6733 16.1913 21.92C16.418 22.1667 16.678 22.36 16.9713 22.5C17.2713 22.6333 17.578 22.7 17.8913 22.7C18.3047 22.7 18.6813 22.6 19.0213 22.4C19.368 22.2 19.6413 21.93 19.8413 21.59C20.048 21.25 20.1513 20.8733 20.1513 20.46C20.1513 20.0467 20.048 19.67 19.8413 19.33C19.6413 18.99 19.368 18.72 19.0213 18.52C18.6813 18.32 18.3047 18.22 17.8913 18.22C17.3847 18.22 16.9713 18.3067 16.6513 18.48C16.3313 18.6467 16.0913 18.8067 15.9313 18.96L13.6313 18.26L14.0713 10.6H21.9313V13.14H15.5713L16.5313 12.24L16.2313 17.18L15.7713 16.62C16.1313 16.3267 16.5413 16.1133 17.0013 15.98C17.4613 15.8467 17.8913 15.78 18.2913 15.78C19.198 15.78 19.9947 15.9833 20.6813 16.39C21.3747 16.79 21.9147 17.3433 22.3013 18.05C22.6947 18.75 22.8913 19.5533 22.8913 20.46C22.8913 21.3667 22.6547 22.1867 22.1813 22.92C21.708 23.6467 21.0847 24.2267 20.3113 24.66C19.538 25.0867 18.698 25.3 17.7913 25.3Z" fill="#A8A8A8"/>
</svg>
