<svg width="19" height="17" viewBox="0 0 19 17" fill="none" xmlns="http://www.w3.org/2000/svg">
<path d="M9.33376 4.28466V1.21459C9.33339 0.977502 9.26478 0.74583 9.13657 0.548772C9.00836 0.351714 8.82629 0.198089 8.61331 0.107255C8.40034 0.016422 8.16598 -0.00755471 7.93977 0.0383475C7.71356 0.0842497 7.50563 0.197976 7.34217 0.365195L0 7.81301L7.34217 15.2596C7.45027 15.3714 7.5788 15.4601 7.72036 15.5207C7.86192 15.5812 8.01373 15.6124 8.16704 15.6124C8.32036 15.6124 8.47216 15.5812 8.61372 15.5207C8.75529 15.4601 8.88381 15.3714 8.99191 15.2596C9.10031 15.1483 9.1863 15.0161 9.24496 14.8705C9.30362 14.725 9.33379 14.569 9.33376 14.4114V11.4253C12.5422 11.5069 16.0482 12.1044 18.6675 16.211V15.0113C18.6675 9.45302 14.584 4.88211 9.33376 4.28466Z" fill="white"/>
</svg>
