<svg width="19" height="17" viewBox="0 0 19 17" fill="none" xmlns="http://www.w3.org/2000/svg">
<path d="M9.33372 4.26903V1.19897C9.33409 0.961877 9.40271 0.730205 9.53091 0.533147C9.65912 0.336089 9.84119 0.182464 10.0542 0.0916303C10.2671 0.000796971 10.5015 -0.0231797 10.7277 0.0227225C10.9539 0.0686247 11.1619 0.182351 11.3253 0.34957L18.6675 7.79739L11.3253 15.244C11.2172 15.3558 11.0887 15.4445 10.9471 15.5051C10.8056 15.5656 10.6538 15.5968 10.5004 15.5968C10.3471 15.5968 10.1953 15.5656 10.0538 15.5051C9.91219 15.4445 9.78367 15.3558 9.67557 15.244C9.56717 15.1327 9.48118 15.0004 9.42252 14.8549C9.36386 14.7094 9.33369 14.5533 9.33372 14.3958V11.4097C6.12524 11.4913 2.61924 12.0888 -4.57764e-05 16.1954V14.9957C-4.57764e-05 9.43739 4.08348 4.86649 9.33372 4.26903Z" fill="#A90533"/>
</svg>
