<svg width="89" height="80" viewBox="0 0 89 80" fill="none" xmlns="http://www.w3.org/2000/svg">
<g clip-path="url(#clip0_251_639)">
<path d="M44.0954 5.29826C30.7886 5.29826 17.4817 5.2961 4.17492 5.31126C3.75767 5.31126 3.05907 5.034 2.95416 5.59502C2.81587 6.32282 2.87071 7.10695 3.01377 7.83908C3.0686 8.11851 3.65753 7.97555 4.00087 7.97555C8.33077 7.98421 12.6607 7.97988 16.9906 7.97988C36.9305 7.97988 56.8729 7.97988 76.8129 7.97988C77.2111 7.97988 77.6092 7.96038 78.0026 7.99504C78.8729 8.07302 79.4165 8.50407 79.3951 9.32285C79.376 10.1286 78.8324 10.5597 77.9597 10.6312C77.645 10.6572 77.3255 10.6398 77.006 10.6398C52.14 10.6398 27.2741 10.6398 2.40815 10.6398C0.305192 10.6398 0.00238431 10.3669 0 8.46075C0 7.2694 0 6.08022 0 4.88888C0 2.88525 0.278964 2.62748 2.44153 2.62748C15.4312 2.62748 28.421 2.61449 41.4083 2.65131C42.4431 2.65348 42.8103 2.45636 42.6934 1.48812C42.5909 0.610859 43.0725 -0.00430943 44.1216 2.27365e-05C45.1731 0.00435491 45.6523 0.623855 45.5355 1.49895C45.402 2.50402 45.8407 2.65131 46.8397 2.64914C59.8676 2.61882 72.8978 2.62748 85.9257 2.62965C87.8761 2.62965 88.2289 2.94373 88.2313 4.6896C88.2313 6.13221 88.2456 7.57699 88.2266 9.0196C88.2099 10.1698 87.7378 10.681 86.5242 10.616C85.4941 10.5597 85.3105 10.8759 85.3129 11.751C85.3439 25.7873 85.27 39.8235 85.3725 53.8597C85.4059 58.2894 81.9487 61.389 77.1491 61.3695C55.1037 61.2786 33.056 61.2829 11.0107 61.3674C6.31365 61.3847 2.82064 58.3067 2.8564 53.9074C2.95893 41.0993 2.89217 28.2891 2.89217 15.4789C2.89217 15.1908 2.86594 14.8984 2.90647 14.6146C3.01853 13.8326 3.53593 13.3236 4.38713 13.3149C5.24548 13.3041 5.76287 13.8196 5.88209 14.5973C5.93693 14.9525 5.90593 15.3186 5.90832 15.6781C5.90832 28.3801 5.90832 41.0798 5.90832 53.7817C5.90832 57.306 7.41997 58.6663 11.3374 58.6663C33.2635 58.6663 55.192 58.6662 77.1181 58.6706C78.3698 58.6706 79.5763 58.5839 80.6063 57.8366C81.5815 57.1283 82.2109 56.2489 82.2849 55.0922C82.3158 54.6243 82.3206 54.1543 82.3206 53.6864C82.3206 39.217 82.3206 24.7475 82.3206 10.2781C82.3206 8.31779 82.509 8.11634 84.6382 8.00371C85.1317 7.97771 85.3082 7.87807 85.3439 7.3972C85.5013 5.3091 85.5228 5.3091 83.2958 5.3091C70.2274 5.3091 57.159 5.3091 44.0906 5.3091L44.0954 5.29826Z" fill="white"/>
<path d="M47.7864 26.411C46.7945 25.5489 45.8026 24.6911 44.8131 23.8268C44.1026 23.2052 43.7903 22.5185 44.527 21.7452C45.1469 21.0976 46.0506 21.1777 46.9113 21.9532C48.6876 23.5517 50.4568 25.1546 52.214 26.7684C53.2226 27.6955 53.2321 28.2435 52.2402 29.1532C50.4544 30.7908 48.6542 32.4175 46.8446 34.0356C46.0196 34.7721 45.1875 34.8305 44.5604 34.2414C43.9047 33.6284 43.9572 32.9135 44.7821 32.1619C45.7549 31.276 46.7659 30.4269 47.7601 29.5605C47.7196 29.4716 47.6767 29.3828 47.6361 29.294C46.3939 29.294 45.1517 29.2745 43.9095 29.2984C41.1031 29.3503 38.292 29.1316 35.5096 29.816C29.2245 31.3626 24.3939 36.3511 23.6381 42.1844C23.5642 42.7519 23.8026 42.9815 24.3105 43.2566C26.0701 44.2053 26.8617 46.0595 26.299 47.7144C25.6862 49.5209 23.9409 50.7101 21.9595 50.6689C19.9519 50.6278 18.2901 49.391 17.7703 47.5498C17.2911 45.8494 18.1423 44.0602 19.9686 43.1743C20.5194 42.9079 20.6672 42.6068 20.7292 42.0999C21.6257 34.6334 27.7653 28.4904 35.8338 26.9915C38.6998 26.4586 41.611 26.7056 44.5032 26.6622C45.5523 26.6471 46.6037 26.6601 47.6552 26.6601C47.6981 26.5778 47.7411 26.4954 47.784 26.4131L47.7864 26.411ZM23.5069 46.6379C23.4044 45.8602 22.9586 45.3729 22.0692 45.3317C21.2466 45.2927 20.5313 45.962 20.6005 46.705C20.6744 47.5108 21.2013 47.944 22.0835 47.9332C22.9872 47.9223 23.4163 47.4198 23.5069 46.6379Z" fill="white"/>
<path d="M70.5731 27.9578C70.5802 31.6488 67.3137 34.6359 63.2556 34.6445C59.2309 34.6532 55.8786 31.6402 55.8619 27.9946C55.8428 24.3556 59.1809 21.3231 63.2175 21.3101C67.2804 21.2971 70.5683 24.2668 70.5755 27.9578H70.5731ZM58.8685 27.9015C58.8375 30.1196 60.7116 31.9109 63.1364 31.9846C65.5374 32.056 67.6404 30.1954 67.6499 27.9881C67.6595 25.8177 65.6852 24.0004 63.289 23.9744C60.8713 23.9462 58.8971 25.6986 58.8685 27.9015Z" fill="white"/>
<path d="M45.5568 67.3806C46.0647 69.2456 45.0609 70.4781 43.6303 71.6997C40.6857 74.2146 37.8746 76.8615 35.0182 79.4608C34.446 79.9829 33.807 80.1561 33.0893 79.8031C32.4479 79.489 32.3048 78.9345 32.4288 78.3128C32.5147 77.8904 32.8747 77.6456 33.1799 77.3684C36.0935 74.7214 38.9904 72.0571 41.9375 69.4405C42.5025 68.938 42.7338 68.442 42.6837 67.7466C42.6289 66.9928 42.6766 66.2347 42.6718 65.4766C42.6671 64.569 43.1582 63.9841 44.1501 63.9993C45.0728 64.0123 45.5592 64.5712 45.5568 65.4333C45.5568 66.0809 45.5568 66.7307 45.5568 67.3784V67.3806Z" fill="white"/>
<path d="M16.3539 18.637C17.1216 18.6847 17.6199 19.3518 18.1469 19.9042C18.8264 20.619 19.3748 20.7685 20.0448 19.9194C20.3166 19.5728 20.7052 19.2977 21.0629 19.0139C21.7352 18.4789 22.4481 18.4659 23.0705 19.0464C23.6904 19.6248 23.6618 20.2898 23.0943 20.8919C22.658 21.3555 22.1811 21.7952 21.6709 22.1916C21.2107 22.5468 21.2798 22.7872 21.6995 23.1122C22.1501 23.4609 22.5602 23.8573 22.9655 24.2515C23.6284 24.8948 23.7619 25.5988 23.0371 26.2551C22.3456 26.8833 21.6136 26.736 20.9317 26.1793C20.3213 25.679 19.8469 24.7497 19.1077 24.7541C18.371 24.7584 17.906 25.6963 17.2837 26.188C16.5374 26.7793 15.7745 26.8682 15.0902 26.1772C14.4512 25.5317 14.6062 24.8667 15.2475 24.2602C15.8174 23.723 16.8259 23.1555 16.8093 22.627C16.7902 22.0638 15.8055 21.5136 15.2118 20.9872C14.6872 20.5237 14.5632 19.9735 14.8494 19.4103C15.0878 18.9424 15.5432 18.6262 16.3539 18.6392V18.637Z" fill="white"/>
<path d="M50.0133 49.222C50.0658 48.4054 50.8645 47.9549 51.4892 47.4393C52.1806 46.8697 52.3785 46.4386 51.4987 45.8863C51.1149 45.6458 50.812 45.2884 50.4926 44.97C49.8655 44.344 49.782 43.666 50.4663 43.0552C51.1554 42.4422 51.9017 42.544 52.5788 43.1137C53.0151 43.4797 53.461 43.8458 53.8425 44.2574C54.2383 44.6819 54.5316 44.7404 54.9607 44.2747C55.3923 43.809 55.8954 43.3909 56.4104 42.9967C57.0995 42.4703 57.8195 42.5353 58.4251 43.1093C59.0069 43.6595 58.9926 44.2855 58.4418 44.8552C57.9984 45.3144 57.531 45.7628 57.0208 46.1613C56.5296 46.5447 56.5988 46.8112 57.0494 47.1686C57.5549 47.5715 58.0317 48.0112 58.4657 48.4769C59.0498 49.1051 58.964 49.7527 58.3155 50.2986C57.7003 50.8141 57.0256 50.8076 56.3937 50.3007C55.9478 49.9433 55.4781 49.5924 55.1181 49.1679C54.5769 48.5267 54.1811 48.6502 53.678 49.1982C53.2727 49.6379 52.7958 50.03 52.307 50.396C51.8802 50.7145 51.3676 50.7708 50.8574 50.5238C50.3233 50.2682 50.0252 49.8719 50.0109 49.222H50.0133Z" fill="white"/>
<path d="M48.4923 72.0005C49.0526 72.0568 49.4484 72.2604 49.7989 72.5832C51.6086 74.2424 53.4397 75.8821 55.2494 77.5435C55.9909 78.2258 56.0649 79.1269 55.3996 79.6294C54.6271 80.2143 53.8808 80.0713 53.1941 79.4432C51.3535 77.7601 49.5128 76.0771 47.6506 74.4135C47.1022 73.9218 46.9401 73.3825 47.2191 72.7521C47.4551 72.2193 47.994 72.0763 48.4923 72.0027V72.0005Z" fill="white"/>
</g>
<defs>
<clipPath id="clip0_251_639">
<rect width="88.2385" height="80" fill="white"/>
</clipPath>
</defs>
</svg>
