<svg width="79" height="84" viewBox="0 0 79 84" fill="none" xmlns="http://www.w3.org/2000/svg">
<g clip-path="url(#clip0_251_491)">
<path d="M50.8633 36.5523C50.8633 37.4279 50.7666 38.317 50.8904 39.1769C51.0119 40.0119 50.2804 41.4615 51.4193 41.5628C52.7653 41.6821 54.431 42.5014 55.6195 40.6714C56.6256 39.1206 58.3228 38.6006 60.083 39.4312C61.0148 39.8701 61.5303 39.6788 62.156 38.9968C63.1712 37.8939 64.2606 36.8585 65.3298 35.805C65.9938 35.1523 66.7546 34.9384 67.4569 35.6722C68.1186 36.3655 67.7787 37.0723 67.2093 37.6575C66.3809 38.5084 65.5233 39.3277 64.677 40.1605C63.5381 41.2814 62.4149 42.2808 62.2978 44.1581C62.21 45.5896 60.9225 46.4697 59.4617 46.7984C58.0617 47.1112 56.6144 46.8299 55.9211 45.6684C54.8001 43.7957 53.1615 44.4327 51.6421 44.3111C50.9759 44.2571 50.8588 44.687 50.708 45.2137C50.1588 47.118 48.8961 48.2119 46.8725 48.1174C45.7156 48.0634 45.4612 48.5585 45.576 49.5489C45.6188 49.9181 45.5648 50.2985 45.5805 50.6744C45.6165 51.505 45.1799 52.0429 44.4123 52.0924C43.512 52.151 43.0775 51.541 43.0415 50.6654C43.0213 50.1657 42.9897 49.6615 43.037 49.164C43.1383 48.1061 42.4698 48.1331 41.7293 48.1331C40.9797 48.1331 40.3742 48.1444 40.3945 49.1775C40.4373 51.2416 40.3945 53.3057 40.4102 55.3697C40.417 56.3128 40.3089 57.265 39.1497 57.2897C37.995 57.3145 37.8127 56.3736 37.8127 55.4282C37.8127 53.4272 37.7745 51.4239 37.8262 49.4229C37.851 48.4775 37.5921 48.1061 36.5725 48.1084C35.5281 48.1084 35.0937 48.392 35.1634 49.4859C35.24 50.7329 35.1769 51.9866 35.1769 53.2381C35.1769 54.1497 34.7335 54.69 33.8174 54.6472C32.9868 54.6067 32.6492 54.0439 32.6582 53.2359C32.6694 52.0474 32.6064 50.8567 32.674 49.6705C32.7325 48.6261 32.5614 48.1129 31.2897 48.0971C28.9217 48.0679 27.6252 46.8006 27.4609 44.3854C27.3799 43.2149 27.0017 42.8233 25.8898 42.9628C25.4621 43.0169 25.0142 42.9674 24.582 42.9111C23.837 42.8143 23.4791 42.2988 23.5151 41.6056C23.5466 41.0068 23.8955 40.5386 24.5685 40.4824C25.129 40.4351 25.6962 40.3833 26.2522 40.4239C27.3619 40.5071 27.4046 39.8431 27.4181 39.0035C27.4316 38.155 27.2111 37.743 26.2702 37.7656C24.2692 37.8151 22.2659 37.7656 20.2648 37.7836C19.3195 37.7926 18.3448 37.68 18.3111 36.5478C18.2728 35.2468 19.3375 35.2198 20.3301 35.2288C22.2073 35.2468 24.0846 35.1928 25.9596 35.2513C26.941 35.2806 27.4406 35.0983 27.4384 33.9391C27.4384 32.8519 27.0873 32.5187 26.0406 32.5885C24.8566 32.6673 23.6637 32.602 22.4752 32.602C21.5974 32.602 20.9649 32.1856 20.9378 31.31C20.9086 30.4119 21.5456 30 22.4189 29.9797C22.9186 29.9685 23.4206 29.9685 23.9203 29.9707C25.775 29.9797 27.7423 30.547 27.7355 27.3597C27.731 25.7864 29.4507 24.8905 31.1974 24.7645C31.7916 24.7217 32.7685 25.0998 32.6357 23.9226C32.5231 22.9255 33.2457 21.5885 32.1855 21.0145C31.4765 20.6296 30.2272 20.409 29.4777 21.4692C29.2616 21.7753 29.0523 22.0927 28.7867 22.3515C27.2921 23.8078 24.8386 23.7988 23.3553 22.3515C21.8382 20.8704 21.8292 18.2639 23.335 16.7626C24.8251 15.277 27.4812 15.0474 28.6899 16.7085C29.8333 18.2797 31.1659 18.2481 32.7212 18.2346C35.0531 18.2121 35.1724 18.3584 35.1814 20.6566C35.1859 21.5322 35.2445 22.4145 35.1657 23.2834C35.0689 24.3705 35.3345 24.8252 36.5725 24.8162C37.7925 24.805 37.887 24.2377 37.8172 23.3239C37.7835 22.8895 37.7564 22.4415 37.8195 22.0116C38.3889 18.1243 37.5764 14.9146 33.6441 13.1251C32.5254 12.6164 32.6087 11.5248 32.6604 10.5119C32.7415 8.94749 32.692 7.63297 31.1276 6.48502C29.4169 5.23353 29.7095 2.42443 31.3077 0.997369C32.872 -0.398179 35.3052 -0.314896 36.7413 1.18419C38.2359 2.74405 38.1639 5.2673 36.5792 6.75063C34.4724 8.72465 34.4319 10.7932 36.9034 12.2315C39.8273 13.9332 40.9595 16.1616 40.4553 19.4479C40.2594 20.7309 40.5093 22.0769 40.399 23.3824C40.2954 24.6001 40.7861 24.922 41.8913 24.7892C42.5081 24.7149 43.1518 24.8455 43.7641 24.7554C44.3673 24.6677 45.3689 25.2146 45.495 24.3098C45.6255 23.3824 45.9947 22.3222 44.8287 21.4602C42.3843 19.6504 42.4338 16.9134 44.7792 14.9911C45.0155 14.7975 45.4635 14.631 45.4747 14.4329C45.6796 10.6312 49.3102 9.44043 51.1987 6.93295C51.847 6.07311 52.4637 5.49914 52.2251 4.20488C51.8177 2.00351 53.722 0.0474958 55.9751 0.00697992C58.1967 -0.033536 59.9547 1.65913 59.9704 3.84924C59.9862 6.07986 58.0437 8.09666 55.8603 7.72076C54.4985 7.48667 53.785 7.95485 52.9747 8.81469C51.6467 10.226 50.2579 11.5833 48.8691 12.9338C48.052 13.7261 48.0655 14.2371 49.0536 14.9844C51.5566 16.8751 51.4733 19.5221 48.9771 21.5659C47.9192 22.4325 47.9102 24.5326 49.0086 25.3722C49.6726 25.8786 50.3997 26.4188 50.528 27.2112C50.7553 28.6247 51.5611 28.7958 52.7563 28.7283C54.503 28.6292 56.1439 28.9443 57.5147 27.0964C58.7797 25.3902 61.6023 25.8246 62.9663 27.4835C64.3169 29.1267 64.1458 31.4833 62.5679 32.8924C60.9496 34.3397 58.4961 34.1709 57.0218 32.539C56.5918 32.0641 56.5153 31.2065 55.5924 31.2335C54.1564 31.2763 52.7136 31.2155 51.282 31.3235C50.7373 31.3663 50.8723 32.0078 50.8678 32.422C50.8543 33.7972 50.8633 35.1748 50.8633 36.5501V36.5523ZM48.2253 36.6761C48.2253 34.1754 48.2005 31.6747 48.2366 29.1762C48.2546 27.9089 47.7144 27.3665 46.4404 27.3732C41.5649 27.4002 36.6895 27.4002 31.8119 27.3732C30.5401 27.3665 30.0022 27.9134 30.0067 29.1739C30.0269 34.0493 30.0269 38.9248 30.0067 43.8002C30.0022 45.0607 30.5784 45.6369 31.8141 45.6369C36.6895 45.6324 41.5649 45.6324 46.4426 45.6369C47.6738 45.6369 48.2568 45.0764 48.2366 43.8024C48.196 41.4277 48.2253 39.0531 48.2253 36.6761ZM46.8635 16.9314C46.0802 17.0484 45.5895 17.5391 45.6503 18.3022C45.7111 19.0697 46.267 19.5244 47.0796 19.4411C47.7931 19.3691 48.2141 18.9122 48.1915 18.1896C48.1668 17.3793 47.6873 16.9629 46.8635 16.9314ZM61.2714 29.9572C61.0959 29.1874 60.684 28.7012 59.8691 28.7508C59.1601 28.7935 58.7032 29.2167 58.6919 29.9212C58.6807 30.7068 59.1353 31.1885 59.9479 31.1975C60.774 31.2065 61.1274 30.6708 61.2714 29.9572ZM26.0879 18.2797C25.3451 18.3292 24.8319 18.7051 24.8544 19.5379C24.8746 20.3257 25.3203 20.8096 26.1351 20.8074C26.8847 20.8074 27.2673 20.2942 27.3191 19.6257C27.3799 18.8379 26.9657 18.3472 26.0879 18.2819V18.2797ZM59.9412 43.0214C59.8511 42.2403 59.437 41.7249 58.6379 41.7271C57.8208 41.7271 57.3909 42.2831 57.4134 43.0574C57.4337 43.7439 57.8568 44.2346 58.5839 44.2616C59.3964 44.2909 59.8106 43.7934 59.9412 43.0214ZM35.1477 3.6354C35.0306 3.04792 34.6075 2.55948 33.8084 2.62251C33.1151 2.67653 32.6987 3.12445 32.6987 3.85149C32.6987 4.66181 33.1669 5.16826 33.9344 5.1525C34.6952 5.13899 35.1432 4.62579 35.1499 3.63315L35.1477 3.6354ZM57.2964 3.80872C57.2378 3.09969 56.8237 2.60225 56.0156 2.62251C55.3246 2.64051 54.8744 3.03217 54.8384 3.78171C54.7979 4.60554 55.2278 5.11423 56.0021 5.1525C56.7877 5.19302 57.2423 4.70232 57.2941 3.80647L57.2964 3.80872Z" fill="white"/>
<path d="M40.3494 83.3864C35.4695 83.3864 30.5873 83.3301 25.7097 83.4179C23.9607 83.4494 23.3643 82.7831 23.4273 81.1017C23.5128 78.8531 23.4003 76.5954 23.4678 74.3468C23.4993 73.2979 23.1954 72.931 22.1083 72.9625C19.5445 73.0345 16.9785 73.0143 14.4125 72.976C10.5995 72.9197 7.93895 70.302 7.84667 66.4957C7.7904 64.1818 7.74088 61.8611 7.86242 59.554C7.94796 57.9514 7.63283 57.1388 5.79161 57.3774C4.31503 57.5687 2.94424 57.006 1.81205 56.0291C-0.209246 54.2869 -0.6009 51.4328 0.925199 49.0626C2.85421 46.0689 4.84849 43.1158 6.86303 40.1784C7.52254 39.215 7.8129 38.2426 7.86918 37.0587C8.49042 24.0058 14.6623 14.4823 26.2476 8.46118C26.7428 8.20457 27.2695 7.97048 27.8075 7.84218C28.422 7.69587 28.8947 7.99974 29.1851 8.56472C29.4979 9.17471 29.2616 9.67215 28.7979 10.0571C28.5165 10.2911 28.1474 10.4172 27.8143 10.586C16.6476 16.2402 10.8741 25.3541 10.4194 37.8307C10.3744 39.0822 10.0615 40.1176 9.36601 41.135C7.35372 44.0724 5.42247 47.0661 3.41243 50.0057C2.68314 51.0727 2.38377 52.1621 2.98926 53.3303C3.57899 54.467 4.65942 54.7056 5.85914 54.6988C10.9709 54.6673 10.3497 54.2577 10.3834 59.4122C10.3969 61.5393 10.3497 63.6664 10.3947 65.7934C10.4577 68.8952 11.95 70.4077 15.045 70.4213C22.4279 70.4528 29.8108 70.41 37.1937 70.4483C38.9134 70.4573 40.0433 69.7843 40.6983 68.2019C41.0315 67.3961 41.4434 66.6173 41.8868 65.8655C42.2874 65.1857 42.9222 64.9516 43.6447 65.3545C44.266 65.7012 44.5091 66.2706 44.1939 66.9414C42.3955 70.7679 41.7517 73.2686 36.4171 73.003C33.4842 72.8567 30.5356 73.0255 27.5959 72.9535C26.4412 72.9265 26.0473 73.2911 26.1058 74.4458C26.1914 76.1318 26.1689 77.8244 26.1126 79.5126C26.0811 80.4444 26.3174 80.8451 27.3483 80.8406C36.1088 80.8068 44.867 80.8091 53.6274 80.8384C54.5458 80.8406 54.8069 80.5255 54.7889 79.6454C54.7416 77.3315 54.8091 75.0153 54.7596 72.7014C54.7371 71.639 55.05 70.8197 55.7477 69.9913C59.4437 65.5999 63.4863 61.4605 65.996 56.1867C66.4259 55.2841 66.8761 54.3927 67.2723 53.4744C67.6662 52.556 68.1118 51.6354 69.3071 52.1823C70.374 52.6708 70.0656 53.5846 69.719 54.4467C68.1141 58.4195 65.8857 62.0187 63.1779 65.3253C61.5955 67.2588 59.9906 69.1788 58.3227 71.0402C57.6047 71.8438 57.3008 72.6654 57.3279 73.7391C57.3886 76.3028 57.3121 78.8688 57.3616 81.4326C57.3886 82.8641 56.8349 83.4336 55.3606 83.4156C50.3569 83.3548 45.3509 83.3931 40.3449 83.3931L40.3494 83.3864Z" fill="white"/>
<path d="M57.6134 49.506C61.9283 50.6855 64.886 48.6124 67.4228 45.4567C68.0057 44.7319 68.7215 44.1062 69.4148 43.4804C70.2746 42.7039 70.7473 41.9971 70.4637 40.6308C70.0315 38.5352 72.0956 36.4959 74.2902 36.4667C76.4015 36.4374 78.2563 38.2606 78.2675 40.3742C78.2788 42.5688 76.3227 44.5991 74.1439 44.221C72.7011 43.9711 71.9898 44.5496 71.1502 45.4049C69.2257 47.3632 67.2382 49.2607 65.3204 51.2257C64.6564 51.9055 63.9406 52.1913 62.9975 52.1756C60.436 52.1351 57.8745 52.1171 55.3152 52.1958C54.7008 52.2138 53.6158 51.6061 53.501 52.7901C53.4132 53.6724 53.1251 54.6133 54.2551 55.4191C56.8886 57.2963 56.578 60.7852 53.8139 62.1177C52.074 62.9573 50.1247 62.4689 48.9858 60.9068C47.8491 59.3469 47.8266 57.1073 49.3819 56.0021C50.9035 54.9217 50.854 53.6319 50.8337 52.1373C50.8 49.6366 50.9575 49.5105 53.4875 49.506C54.8628 49.5038 56.2359 49.506 57.6111 49.506H57.6134ZM75.5912 40.426C75.5417 39.6021 75.1095 39.1204 74.306 39.1227C73.5969 39.1227 73.1175 39.5706 73.0702 40.2707C73.0184 41.0517 73.4461 41.5942 74.2542 41.6504C75.0825 41.7067 75.4787 41.189 75.5912 40.426ZM52.0582 57.3976C51.1984 57.4381 50.8495 57.9806 50.8945 58.7459C50.935 59.4594 51.4302 59.8781 52.1347 59.8511C52.8955 59.8218 53.4448 59.4212 53.411 58.5771C53.3772 57.751 52.8663 57.3841 52.0582 57.3954V57.3976Z" fill="white"/>
<path d="M75.6276 23.3821C75.5646 25.2391 74.7003 26.4793 73.0031 27.1321C71.2316 27.8141 69.7281 27.2221 68.6881 25.8378C68.0759 25.0208 67.5177 24.6291 66.5656 24.7844C64.9787 25.0455 63.968 24.3478 63.2523 22.9725C62.8516 22.2027 62.2349 21.5454 61.8162 20.7824C61.3278 19.891 60.7673 19.4656 59.6373 19.4296C57.3482 19.3553 55.7658 17.2417 56.0945 15.0313C56.4343 12.7489 58.701 11.2589 60.9586 11.8328C63.1217 12.3821 64.3124 14.6037 63.6394 16.8298C63.2815 18.0138 65.008 21.838 66.1424 22.1081C67.1125 22.34 67.9679 22.2522 68.6656 21.1402C69.611 19.6322 71.1956 19.1122 72.9401 19.7334C74.6327 20.3367 75.5218 21.6107 75.6254 23.3821H75.6276ZM72.9873 23.3821C72.8973 22.5763 72.4111 22.1757 71.6098 22.2139C70.8738 22.2499 70.4416 22.7541 70.4393 23.4294C70.4393 24.1969 70.921 24.7417 71.7313 24.7282C72.5327 24.7169 72.9603 24.2172 72.9873 23.3799V23.3821ZM61.2715 15.5536C61.0576 14.8355 60.6818 14.2368 59.8602 14.3223C59.0859 14.4034 58.6154 14.9346 58.7032 15.7404C58.7798 16.4336 59.2434 16.8973 59.9592 16.8816C60.7695 16.8658 61.1364 16.2963 61.2715 15.5513V15.5536Z" fill="white"/>
<path d="M39.136 29.9862C40.6981 29.9862 42.2602 30.0019 43.8223 29.9794C45.0806 29.9614 45.6388 30.5151 45.587 31.8004C45.5263 33.2972 45.5668 34.7986 45.569 36.2977C45.569 37.0922 45.2562 37.6639 44.4098 37.7022C43.4735 37.745 43.0796 37.1642 43.0503 36.2842C43.0503 36.2211 43.0503 36.1581 43.0458 36.0973C42.9648 34.9921 43.5297 33.5178 42.8072 32.8651C41.9384 32.0795 40.4235 32.6445 39.1923 32.6062C37.5694 32.5544 35.9443 32.595 34.3191 32.5905C33.3963 32.5882 32.694 32.2708 32.7097 31.2107C32.7255 30.2158 33.4525 29.9997 34.2628 29.9907C35.888 29.9727 37.5109 29.9862 39.136 29.9839V29.9862Z" fill="white"/>
<path d="M38.9898 42.9536C37.4907 42.9536 35.9916 42.9288 34.4925 42.9649C33.268 42.9941 32.6153 42.5484 32.6626 41.2249C32.7143 39.7911 32.6783 38.3528 32.6738 36.9145C32.6716 36.0186 32.8426 35.2443 33.9681 35.2758C34.9652 35.3028 35.107 36.0096 35.1768 36.8312C35.2758 37.9881 34.5848 39.5908 35.5167 40.1895C36.4148 40.7657 37.9229 40.4101 39.1654 40.4281C40.7882 40.4506 42.4134 40.4281 44.0385 40.4416C44.8623 40.4484 45.5466 40.6802 45.5511 41.6863C45.5556 42.688 44.8781 42.9401 44.052 42.9491C42.3661 42.9671 40.678 42.9536 38.992 42.9558L38.9898 42.9536Z" fill="white"/>
<path d="M40.356 36.4036C40.3334 37.2454 39.9215 37.7203 39.0955 37.7136C38.3662 37.7068 37.925 37.2792 37.9092 36.5454C37.8912 35.7305 38.3099 35.2624 39.163 35.2691C39.9193 35.2759 40.2862 35.6968 40.3582 36.4013L40.356 36.4036Z" fill="white"/>
</g>
<defs>
<clipPath id="clip0_251_491">
<rect width="78.27" height="83.4178" fill="white"/>
</clipPath>
</defs>
</svg>
