<svg width="53" height="59" viewBox="0 0 53 59" fill="none" xmlns="http://www.w3.org/2000/svg">
<path d="M26.2644 0.600014C33.6397 0.600014 41.0151 0.598005 48.3922 0.600014C51.035 0.600014 52.5119 2.24937 52.5137 5.19652C52.5137 21.3245 52.5155 37.4524 52.5137 53.5804C52.5137 56.4733 50.9826 58.1769 48.3615 58.1789C33.6397 58.1849 18.918 58.1829 4.198 58.1789C1.56602 58.1789 0.00599013 56.4351 0.00599013 53.494C-0.0012406 37.4022 -0.0012406 21.3084 0.00237477 5.21259C0.00237477 2.29558 1.52987 0.602023 4.13654 0.600014C11.5119 0.600014 18.889 0.600014 26.2644 0.600014ZM26.2192 52.7989C32.8714 52.7989 39.5237 52.7989 46.176 52.7989C47.445 52.7989 47.6276 52.594 47.6276 51.1736C47.6276 38.0913 47.6276 25.0109 47.6276 11.9285C47.6276 10.4721 47.4775 10.3013 46.1868 10.3013C32.9112 10.3013 19.6374 10.3013 6.3618 10.3013C5.08015 10.3013 4.89035 10.5102 4.88854 11.9165C4.88854 24.9989 4.88854 38.0792 4.88854 51.1616C4.88854 52.5698 5.09461 52.7989 6.35095 52.7989C12.9725 52.7989 19.5958 52.7989 26.2174 52.7989H26.2192ZM35.7999 7.01061C38.8657 7.01061 41.9334 7.01262 44.9992 7.01061C46.0711 7.01061 46.6894 6.48024 46.7165 5.56416C46.7454 4.61995 46.0874 4.02328 44.9793 4.02128C38.8766 4.01726 32.7738 4.01525 26.6693 4.02128C25.61 4.02128 25.0261 4.57977 25.0315 5.53603C25.037 6.49431 25.6064 7.0086 26.6892 7.01061C29.7261 7.01463 32.763 7.01061 35.7981 7.01061H35.7999ZM13.1406 4.00922C12.4284 4.01927 11.8409 4.67419 11.8282 5.46974C11.8156 6.2914 12.4627 7.01262 13.193 6.98851C13.8908 6.9644 14.5108 6.27332 14.5181 5.51393C14.5253 4.68423 13.898 3.99918 13.1406 4.00922ZM6.98726 5.48782C6.98364 4.67017 6.42145 4.02529 5.70019 4.01123C4.96265 3.99516 4.2902 4.70432 4.28839 5.49786C4.28658 6.26529 5.00061 7.01463 5.70923 6.99052C6.42688 6.96641 6.99087 6.30145 6.98726 5.48782ZM9.3969 6.99052C10.0766 7.0086 10.7382 6.32555 10.7762 5.57019C10.8159 4.7666 10.185 4.02328 9.44751 4.01123C8.72263 3.99918 8.12248 4.61794 8.08452 5.41549C8.04475 6.24721 8.64852 6.97043 9.3987 6.99052H9.3969Z" fill="white"/>
<path d="M31.165 21.7685C31.1162 21.9533 31.0692 22.2165 30.9788 22.4616C28.8222 28.3438 26.6657 34.226 24.5001 40.1043C24.0337 41.3699 23.5854 41.5467 22.3887 40.9983C21.3656 40.5282 21.1703 40.0078 21.6132 38.7944C23.7571 32.9062 25.9137 27.0259 28.054 21.1356C28.3396 20.3481 28.7861 19.9202 29.567 20.087C30.5576 20.2979 31.1813 20.9408 31.165 21.7685Z" fill="white"/>
<path d="M35.0063 38.1375C34.5345 38.1214 33.2258 36.9 33.045 36.3174C32.8154 35.574 33.2438 35.1421 33.665 34.6881C34.6773 33.5952 35.6499 32.4541 36.6893 31.3914C37.2009 30.867 37.331 30.5557 36.7182 29.965C35.6752 28.9605 34.7316 27.8295 33.7446 26.7527C32.6997 25.6116 32.6961 25.26 33.7229 24.143C33.8512 24.0024 33.9741 23.8558 34.1079 23.7192C34.7496 23.0622 35.2883 23.0421 35.9084 23.7151C37.9059 25.8848 39.8835 28.0786 41.8864 30.2423C42.2009 30.5818 42.2045 30.7626 41.89 31.1021C39.8636 33.2899 37.857 35.4997 35.8433 37.7015C35.6011 37.9667 35.3389 38.1797 35.0045 38.1395L35.0063 38.1375Z" fill="white"/>
<path d="M17.5297 38.1375C17.1934 38.1917 16.9277 37.9607 16.6927 37.7015C14.679 35.5037 12.6778 33.2919 10.6569 31.1021C10.3532 30.7726 10.3315 30.5838 10.6551 30.2362C12.6616 28.0766 14.641 25.8828 16.6403 23.7151C17.2603 23.0441 17.8062 23.0602 18.4407 23.7111C18.6396 23.914 18.8276 24.131 19.0156 24.3459C19.7784 25.2158 19.7802 25.6457 18.9921 26.5257C17.8894 27.7552 16.7957 28.9927 15.6569 30.18C15.2646 30.5898 15.2954 30.8048 15.6623 31.1905C16.7957 32.3838 17.902 33.6093 19.0065 34.8347C19.7875 35.7026 19.7766 36.1365 18.9975 37.0185C18.119 38.0149 17.9798 38.1234 17.5315 38.1375H17.5297Z" fill="white"/>
</svg>
