<svg width="74" height="71" viewBox="0 0 74 71" fill="none" xmlns="http://www.w3.org/2000/svg">
<g clip-path="url(#clip0_251_328)">
<path d="M37.0046 70.9999C26.972 70.9999 16.9394 70.9999 6.90679 70.9999C2.47819 70.9984 0.00151664 68.4985 0 64.0227C0 44.9968 0 25.9724 0.00151664 6.94657C0.00151664 2.54553 2.50549 0.00447472 6.85522 0.00294765C26.9522 -0.00163359 47.0493 -0.00163359 67.1448 0.00294765C71.4672 0.00294765 73.9955 2.53179 73.9955 6.84731C73.9985 25.9999 74 45.1526 73.9955 64.3052C73.9955 67.622 72.2634 70.047 69.3515 70.7708C68.6569 70.9434 67.9152 70.9892 67.1963 70.9892C57.1319 71.0029 47.0675 70.9984 37.0046 70.9984V70.9999ZM2.56464 14.472C2.56464 14.8813 2.56464 15.1943 2.56464 15.5089C2.56464 31.7402 2.56464 47.97 2.56464 64.2013C2.56464 67.0997 3.90384 68.4283 6.80972 68.4283C26.9386 68.4283 47.0675 68.4283 67.1963 68.4283C70.0947 68.4283 71.4445 67.089 71.4445 64.1952C71.4475 47.9639 71.446 31.7341 71.4445 15.5028C71.4445 15.1684 71.4111 14.8339 71.3914 14.472H2.56464ZM2.61772 11.9019H3.94327C25.5205 11.9019 47.0963 11.9019 68.6736 11.9019C69.3363 11.9019 70.0006 11.8653 70.6604 11.9126C71.3049 11.9584 71.4702 11.6775 71.4566 11.0789C71.4263 9.71364 71.3701 8.34232 71.4642 6.98322C71.6568 4.19478 69.849 2.53637 67.0796 2.54553C47.0174 2.60967 26.9538 2.58066 6.89162 2.58066C6.54431 2.58066 6.197 2.57302 5.85121 2.59898C4.23902 2.71657 2.75119 3.97183 2.64806 5.58747C2.51763 7.63834 2.61621 9.70295 2.61621 11.9035L2.61772 11.9019Z" fill="white"/>
<path d="M10.0265 63.0149C10.0265 62.4499 10.0265 61.9841 10.0265 61.5183C10.0265 59.2002 10.0265 56.8821 10.0265 54.564C10.0265 52.5101 10.2358 52.304 12.3166 52.304C13.768 52.304 15.2195 52.278 16.6694 52.3162C17.2942 52.333 17.5232 52.1146 17.4762 51.4946C17.4383 50.9891 17.4595 50.4791 17.4717 49.9706C17.499 48.7932 17.9221 48.3565 19.0778 48.3488C20.9948 48.3366 22.9119 48.3458 24.9563 48.3458C24.9563 47.4753 24.9427 46.6935 24.9593 45.9101C24.9821 44.8594 25.4219 44.4074 26.4729 44.3983C28.3915 44.3815 30.3116 44.3937 32.3727 44.3937C32.3727 43.5721 32.3621 42.8238 32.3757 42.0756C32.3954 40.9562 32.8186 40.5118 33.9212 40.5042C36.1597 40.4889 38.3998 40.4951 40.6399 40.5012C42.0064 40.5042 42.381 40.8783 42.3825 42.2512C42.3871 48.7611 42.384 55.2695 42.384 61.7795C42.384 62.1521 42.384 62.5232 42.384 63.0149C43.429 63.0149 44.3663 63.0042 45.3021 63.0179C46.2939 63.0332 46.8414 63.5112 46.8157 64.3098C46.7914 65.0703 46.2575 65.5285 45.3187 65.53C32.5759 65.5346 19.8346 65.5346 7.09178 65.53C6.13781 65.53 5.62519 65.0887 5.59941 64.3144C5.57211 63.4974 6.09535 63.0332 7.09936 63.0179C8.03817 63.0042 8.97697 63.0149 10.025 63.0149H10.0265ZM34.9661 43.0621V62.9569H39.7481V43.0621H34.9661ZM27.524 47.0019V62.9324H32.2908V47.0019H27.524ZM24.9154 50.9281H20.0879V62.9339H24.9154V50.9281ZM17.3928 62.9614V54.9061H12.6518V62.9614H17.3928Z" fill="white"/>
<path d="M22.9771 30.0178C21.6197 30.0178 20.2623 30.0437 18.9064 30.0071C18.2831 29.9903 18.0905 30.2178 18.095 30.8332C18.1208 33.4384 18.1087 36.0436 18.1041 38.6473C18.1011 40.3118 17.7083 40.6844 16.0779 40.5913C10.2525 40.2584 5.41895 35.4129 5.08529 29.5734C4.73646 23.4773 8.80258 18.1676 14.6432 17.0941C21.7001 15.7976 28.2565 20.9576 28.5993 28.0769C28.6721 29.6055 28.2945 30.0086 26.7627 30.0147C25.5008 30.0193 24.239 30.0147 22.9756 30.0162L22.9771 30.0178ZM25.8967 27.4492C25.6722 23.0589 21.2724 19.3145 16.6133 19.4198C11.6448 19.5329 7.60292 23.6972 7.58623 28.7198C7.57107 33.3254 11.393 37.7814 15.5532 37.867C15.5532 37.5249 15.5532 37.1844 15.5532 36.8438C15.5532 34.399 15.5532 31.9556 15.5532 29.5108C15.5532 27.7882 15.8914 27.4508 17.6021 27.4492C20.3412 27.4492 23.0787 27.4492 25.8982 27.4492H25.8967Z" fill="white"/>
<path d="M19.7421 37.5064C19.7421 36.0786 19.7254 34.6523 19.7481 33.2244C19.7648 32.0868 20.1682 31.6699 21.3057 31.6622C24.11 31.6424 26.9128 31.6409 29.717 31.6638C30.8378 31.6729 31.2473 32.1402 31.2443 33.255C31.2352 38.4974 26.5002 43.2543 21.2906 43.2512C20.1864 43.2512 19.7648 42.845 19.7466 41.6921C19.7254 40.2963 19.7421 38.9006 19.7421 37.5064ZM22.3264 40.5117C25.387 40.2169 28.5629 36.9414 28.4355 34.298H22.3264V40.5117Z" fill="white"/>
<path d="M56.5147 50.7878C53.6149 50.7878 50.7151 50.7908 47.8152 50.7847C47.471 50.7847 47.0326 50.858 46.8036 50.6824C46.4199 50.3877 45.9619 49.9341 45.927 49.5157C45.8967 49.1492 46.3395 48.6499 46.7005 48.3765C46.9583 48.1811 47.4239 48.2269 47.797 48.2253C53.627 48.2177 59.4585 48.2192 65.2885 48.2238C65.6327 48.2238 66.0832 48.152 66.2955 48.3353C66.6807 48.6682 67.1494 49.163 67.1585 49.5982C67.1661 49.9693 66.6201 50.4136 66.2303 50.7038C66.018 50.8626 65.6206 50.7847 65.3082 50.7862C62.3765 50.7908 59.4464 50.7893 56.5147 50.7893V50.7878Z" fill="white"/>
<path d="M56.5981 59.1176C53.6983 59.1176 50.7984 59.1176 47.8986 59.1176C47.615 59.1176 47.3299 59.1253 47.0493 59.0947C46.3183 59.0123 45.8739 58.5862 45.8785 57.8502C45.883 57.1187 46.3319 56.6484 47.0523 56.5995C47.9623 56.5384 48.8799 56.5735 49.7929 56.5735C54.8994 56.5735 60.006 56.5735 65.1125 56.5735C65.3961 56.5735 65.6812 56.5567 65.9633 56.5842C66.7232 56.6575 67.2146 57.0546 67.2176 57.8532C67.2206 58.6595 66.7277 59.0657 65.9588 59.0993C65.1717 59.1329 64.383 59.1176 63.5959 59.1176C61.2633 59.1192 58.9307 59.1176 56.5981 59.1176Z" fill="white"/>
<path d="M56.586 25.7495C53.6558 25.7495 50.7242 25.7495 47.794 25.7495C47.5104 25.7495 47.1464 25.8426 46.9614 25.7021C46.5489 25.3891 45.9649 24.9722 45.9392 24.566C45.9134 24.1567 46.4275 23.6543 46.8082 23.3061C46.9917 23.1397 47.4118 23.2145 47.7243 23.2145C53.6179 23.2099 59.5101 23.2115 65.4037 23.2115C65.5933 23.2115 65.7844 23.1993 65.971 23.2222C66.7187 23.3153 67.2298 23.691 67.2177 24.5003C67.204 25.3005 66.7187 25.7174 65.9467 25.7357C64.7501 25.7632 63.5519 25.7479 62.3538 25.7495C60.4307 25.7495 58.5091 25.7495 56.586 25.7495Z" fill="white"/>
<path d="M56.4996 42.4513C53.5057 42.4513 50.5134 42.4452 47.5196 42.4544C46.8022 42.4559 46.194 42.2986 45.9301 41.5412C45.6874 40.8448 46.1182 40.1149 46.8704 39.9652C47.1753 39.9042 47.4968 39.9148 47.8123 39.9148C53.6407 39.9118 59.4707 39.9133 65.2991 39.9148C65.5191 39.9148 65.7405 39.9103 65.9604 39.9271C66.7293 39.9851 67.2177 40.376 67.2162 41.1793C67.2162 41.9886 66.699 42.3872 65.9513 42.4345C65.1657 42.4834 64.377 42.4513 63.5884 42.4513C61.2254 42.4513 58.8625 42.4513 56.4996 42.4513Z" fill="white"/>
<path d="M56.5207 34.0935C53.5268 34.0935 50.5345 34.0965 47.5406 34.092C46.4805 34.0904 45.8738 33.6277 45.8617 32.8459C45.8511 32.0564 46.4562 31.5738 47.5103 31.5723C53.5283 31.5677 59.5464 31.5677 65.5659 31.5723C66.667 31.5723 67.2206 31.9999 67.2282 32.8153C67.2357 33.6369 66.6761 34.0889 65.5947 34.0904C62.5706 34.0981 59.5449 34.0935 56.5207 34.0935Z" fill="white"/>
<path d="M15.3349 8.33471C12.8749 8.33471 10.4149 8.35151 7.9549 8.31791C7.54237 8.3118 7.00396 8.20796 6.75675 7.93614C6.49134 7.64447 6.30327 7.01531 6.44129 6.68546C6.59902 6.30827 7.12681 5.90054 7.5363 5.85168C8.56307 5.72951 9.61259 5.79823 10.653 5.7967C14.5326 5.79518 18.4106 5.7967 22.2902 5.7967C22.5738 5.7967 22.8589 5.78754 23.141 5.80739C23.9858 5.86389 24.5348 6.3663 24.4833 7.08556C24.4226 7.9285 23.8933 8.31944 23.0925 8.33013C21.7685 8.34845 20.4429 8.33623 19.1189 8.33623C17.8571 8.33623 16.5952 8.33623 15.3349 8.33623V8.33471Z" fill="white"/>
<path d="M55.8882 7.03992C55.8973 7.7775 55.3104 8.33946 54.5445 8.32725C53.8332 8.31656 53.2554 7.76375 53.2417 7.08115C53.2281 6.39091 53.7756 5.83963 54.5036 5.81367C55.3028 5.78466 55.8791 6.29623 55.8882 7.04145V7.03992Z" fill="white"/>
<path d="M60.4882 5.81041C61.2329 5.82568 61.7804 6.34183 61.7895 7.03971C61.7986 7.76813 61.201 8.33773 60.4366 8.32856C59.6768 8.3194 59.1065 7.72689 59.146 6.98626C59.1839 6.2777 59.7359 5.79514 60.4882 5.81041Z" fill="white"/>
<path d="M67.6907 7.04457C67.6983 7.74703 67.0886 8.32884 66.3455 8.32884C65.5841 8.32884 65.0078 7.77299 65.0457 7.0293C65.0867 6.2398 65.5356 5.83665 66.3136 5.81222C67.081 5.78931 67.6847 6.33601 67.6907 7.04457Z" fill="white"/>
</g>
<defs>
<clipPath id="clip0_251_328">
<rect width="74" height="71" fill="white"/>
</clipPath>
</defs>
</svg>
