<svg width="77" height="65" viewBox="0 0 77 65" fill="none" xmlns="http://www.w3.org/2000/svg">
<g clip-path="url(#clip0_244_136)">
<path d="M62.2597 40.5874C58.0401 40.5874 53.8186 40.5893 49.599 40.5874C48.0394 40.5874 47.5119 40.0531 47.5044 38.4969C47.4987 37.2482 47.4798 35.9977 47.5138 34.749C47.5271 34.2503 47.3664 34.1134 46.8748 34.1191C44.576 34.1416 42.2771 34.1509 39.9783 34.1134C39.3658 34.1041 39.1332 34.4078 39.1919 34.8765C39.5189 37.4901 39.2996 40.1093 39.3242 42.7247C39.3696 47.6913 39.3507 52.6578 39.3185 57.6225C39.3147 58.3237 39.483 58.5599 40.2033 58.4999C40.984 58.4343 41.7781 58.4643 42.5645 58.4999C43.5211 58.5412 44.213 59.2218 44.2319 60.0786C44.2508 60.9654 43.523 61.706 42.5343 61.7228C40.9292 61.7491 39.3223 61.7528 37.7154 61.7228C36.6151 61.7022 36.0404 61.0348 36.0328 59.7842C36.0158 56.88 36.0272 53.974 36.0272 51.0698C36.0272 49.0093 35.9931 46.947 36.0442 44.8865C36.065 44.1065 35.9251 43.6978 35.0365 43.8478C34.7359 43.8984 34.4032 43.8553 34.0988 43.7915C33.2538 43.6134 32.766 43.0753 32.7679 42.2167C32.7717 41.3598 33.2784 40.8424 34.1026 40.6268C34.1934 40.6024 34.2898 40.6024 34.3824 40.5911C34.9042 40.5255 35.6339 40.833 35.8986 40.443C36.1652 40.0493 35.9912 39.3668 36.0272 38.8119C36.1103 37.5088 35.8684 36.2021 36.15 34.8971C36.2502 34.4284 36.029 34.0497 35.4033 34.121C35.0309 34.1622 34.6452 34.1528 34.2709 34.1097C33.3824 34.0047 32.7547 33.3091 32.7566 32.4748C32.7566 31.6724 33.3408 31.033 34.2066 30.8849C34.269 30.8737 34.3314 30.8699 34.3938 30.8605C34.9137 30.7912 35.6415 31.1043 35.9062 30.7012C36.1689 30.3018 36.0196 29.6231 36.0234 29.0663C36.0328 27.7239 36.0045 26.3796 36.0366 25.0372C36.0498 24.516 35.9024 24.3004 35.3522 24.3454C34.9477 24.3791 34.5299 24.3622 34.131 24.2929C33.2784 24.1429 32.7868 23.601 32.7698 22.748C32.7528 21.8911 33.2538 21.3643 34.0724 21.1318C34.1915 21.0981 34.32 21.0962 34.4467 21.0868C35.5016 21.0106 36.029 20.43 36.029 19.3451C36.029 15.7847 36.0253 12.2243 36.029 8.66391C36.0309 6.99153 36.5527 6.47969 38.2296 6.47594C39.6153 6.47406 41.0011 6.46094 42.3868 6.47969C43.4833 6.49469 44.2149 7.14902 44.2319 8.07895C44.2489 9.01264 43.5305 9.67447 42.4246 9.70822C41.6382 9.73259 40.8479 9.75134 40.0634 9.70259C39.483 9.66697 39.3072 9.84696 39.3204 10.4282C39.3582 12.0818 39.3336 13.7392 39.3336 15.3947C39.3336 20.2356 39.3544 25.0766 39.3128 29.9175C39.3053 30.7199 39.5359 30.8924 40.3035 30.8737C42.4435 30.8193 44.5873 30.8324 46.7274 30.868C47.3475 30.8793 47.5384 30.7068 47.5157 30.0881C47.4685 28.8094 47.4892 27.527 47.5063 26.2465C47.5233 24.9584 48.1226 24.3547 49.4289 24.3529C57.9645 24.3454 66.4982 24.3454 75.0338 24.3529C76.4063 24.3529 76.9867 24.9341 76.9905 26.3009C77.0018 30.4237 77.0018 34.5465 76.9905 38.6694C76.9867 40.0287 76.4063 40.5855 75.013 40.5874C70.7613 40.5949 66.5096 40.5893 62.2578 40.5893L62.2597 40.5874ZM62.2446 37.357C65.7987 37.357 69.3529 37.3401 72.907 37.372C73.5725 37.3776 73.7558 37.1826 73.7483 36.5302C73.7142 33.8172 73.7086 31.1024 73.7521 28.3895C73.7634 27.6995 73.5233 27.587 72.8957 27.5889C65.7874 27.6095 58.6791 27.6095 51.5708 27.5889C50.9715 27.5889 50.7768 27.7239 50.7844 28.3501C50.8203 31.063 50.8241 33.776 50.7844 36.4889C50.773 37.1901 50.964 37.3832 51.6786 37.3757C55.2006 37.3382 58.7245 37.3589 62.2465 37.3589L62.2446 37.357Z" fill="white"/>
<path d="M27.8282 40.9886C21.5366 43.5235 15.1562 43.6209 8.69068 42.6029C7.04028 42.3423 5.4428 41.8698 3.91906 41.178C3.49748 40.9867 3.28574 40.923 3.23281 41.5436C3.1364 42.6835 2.44636 43.2666 1.47087 43.1804C0.542631 43.0997 0.00383934 42.4548 0.00383934 41.3448C-0.00183216 33.2904 5.83391e-05 25.2322 5.83391e-05 17.1759C5.83391e-05 15.8016 0.722229 14.821 1.74499 14.0073C3.75459 12.408 6.17443 11.8156 8.61695 11.33C10.8099 10.8931 13.0369 10.6869 15.2791 10.7132C16.4625 10.7263 17.1847 11.3206 17.1979 12.3031C17.2093 13.2892 16.5098 13.9211 15.3282 13.9492C12.4547 14.0186 9.61135 14.2942 6.83988 15.0947C5.93244 15.3572 5.04958 15.6928 4.2499 16.2047C3.01918 16.9902 3.02297 17.4083 4.29905 18.1677C5.7415 19.0264 7.33141 19.5119 8.97236 19.81C14.2072 20.7625 19.406 20.7287 24.5368 19.1707C25.3498 18.9232 26.1267 18.5876 26.847 18.1339C27.3575 17.8114 27.7639 17.4702 27.8963 16.7934C28.0607 15.9422 28.8472 15.4716 29.6525 15.5597C30.4522 15.6478 31.0931 16.274 31.1536 17.1177C31.1952 17.7064 31.1309 18.3026 31.1309 18.8951C31.1422 26.3871 31.1555 33.8791 31.1687 41.373C31.1687 42.4285 30.5297 43.1691 29.5675 43.2178C28.5882 43.2685 27.9019 42.6066 27.8282 41.5342C27.8169 41.3805 27.8282 41.2249 27.8282 40.9867V40.9886ZM15.4946 39.9556C16.852 40.0006 18.2037 39.9068 19.5478 39.7493C22.0546 39.4531 24.5179 38.9844 26.762 37.7395C27.5087 37.3251 27.953 36.8058 27.8622 35.8758C27.7809 35.0415 27.8679 34.1903 27.8377 33.3485C27.815 32.6773 28.1269 31.8186 27.6713 31.408C27.4388 31.1962 26.5105 31.768 25.8867 31.948C18.5137 34.0835 11.1842 34.0816 3.92662 31.4436C3.30843 31.2187 3.23659 31.3743 3.24794 31.918C3.27062 33.0729 3.34813 34.2372 3.23092 35.3809C3.08724 36.7627 3.68086 37.567 4.90212 38.0469C5.42768 38.2532 5.94 38.495 6.47502 38.675C9.39773 39.6668 12.4301 39.9331 15.4927 39.9556H15.4946ZM27.8339 21.4693C27.0531 21.773 26.3498 22.1236 25.6069 22.3243C18.3266 24.2947 11.0897 24.3735 3.94364 21.7168C3.38405 21.5087 3.22714 21.5293 3.24794 22.1424C3.27818 23.078 3.2555 24.0154 3.2555 24.9528C3.2555 27.5514 3.44077 27.8158 5.91165 28.7476C6.11771 28.8244 6.32756 28.8938 6.5374 28.9557C11.6852 30.4593 16.8936 30.5456 22.1378 29.565C23.8411 29.2463 25.5218 28.8226 26.9926 27.842C27.4369 27.5458 27.8547 27.2514 27.8433 26.6027C27.8131 24.921 27.8339 23.2373 27.8339 21.4712V21.4693Z" fill="white"/>
<path d="M62.239 48.7225C66.4283 48.7225 70.6158 48.7206 74.8051 48.7225C76.482 48.7225 76.9924 49.2362 76.9943 50.9161C76.9981 54.8834 76.9981 58.8506 76.9943 62.8159C76.9943 64.4771 76.465 64.9983 74.7862 64.9983C66.4397 65.0002 58.0931 65.0002 49.7485 64.9983C48.0224 64.9983 47.5063 64.479 47.5063 62.7503C47.5044 58.7831 47.5026 54.8159 47.5063 50.8505C47.5063 49.2587 48.0489 48.7263 49.6728 48.7244C53.8622 48.7206 58.0496 48.7244 62.239 48.7244V48.7225ZM62.239 61.7304C65.7969 61.7304 69.3567 61.7135 72.9146 61.7454C73.5801 61.751 73.7578 61.5654 73.7502 60.9111C73.7143 58.1944 73.72 55.4777 73.7465 52.7591C73.7521 52.1667 73.6103 51.9529 72.9657 51.9548C65.8177 51.9773 58.6678 51.9754 51.5199 51.9548C50.9149 51.9548 50.7864 52.1667 50.7901 52.7141C50.8128 55.4627 50.8185 58.2113 50.7864 60.9598C50.7788 61.5635 50.9338 61.7491 51.5633 61.7435C55.1213 61.7135 58.6811 61.7285 62.239 61.7285V61.7304Z" fill="white"/>
<path d="M62.1975 16.2064C58.0119 16.2064 53.8245 16.2083 49.6389 16.2064C48.0263 16.2064 47.5064 15.6815 47.5045 14.0635C47.5008 10.0681 47.5008 6.07276 47.5045 2.0774C47.5045 0.530628 48.0396 0.00378887 49.6068 0.00378887C58.0422 3.91256e-05 66.4776 3.91256e-05 74.9111 0.00378887C76.4727 0.00378887 76.9888 0.525004 76.9907 2.09427C76.9944 6.1215 76.9963 10.1469 76.9907 14.1741C76.9888 15.6665 76.4424 16.2046 74.9432 16.2064C70.6934 16.2121 66.4454 16.2064 62.1956 16.2064H62.1975ZM62.2391 12.9779C65.7951 12.9779 69.3511 12.961 72.9072 12.9929C73.5726 12.9985 73.756 12.8092 73.7466 12.1548C73.7106 9.4719 73.7069 6.78708 73.7466 4.10414C73.7579 3.40668 73.5726 3.21545 72.858 3.21732C65.7781 3.24545 58.6963 3.24357 51.6164 3.2192C50.9509 3.21732 50.7713 3.40668 50.7789 4.05539C50.8129 6.73834 50.8167 9.42315 50.7789 12.1061C50.7694 12.7942 50.9396 13.0042 51.6636 12.9948C55.1875 12.9535 58.7133 12.976 62.2372 12.976L62.2391 12.9779Z" fill="white"/>
<path d="M15.5418 52.9389C11.6511 52.9052 7.82096 52.4908 4.16852 51.049C3.64485 50.8428 3.12307 50.6066 2.65234 50.3028C1.91883 49.8304 1.71465 48.8817 2.11922 48.1561C2.54458 47.393 3.43501 47.0443 4.20633 47.4399C8.2917 49.5398 12.706 49.7422 17.1619 49.6485C18.9522 49.611 20.7368 49.3841 22.4912 48.9998C23.9375 48.6829 25.3497 48.2817 26.6655 47.5693C27.5672 47.0799 28.4955 47.3462 28.9435 48.1411C29.3953 48.9417 29.1439 49.8641 28.2667 50.3966C27.1305 51.0846 25.8752 51.4953 24.5954 51.8365C21.6292 52.6277 18.6063 52.952 15.5399 52.937L15.5418 52.9389Z" fill="white"/>
<path d="M24.9905 13.1333C25.0075 14.0014 24.291 14.757 23.4157 14.7964C22.5102 14.8376 21.7313 14.0802 21.7332 13.1596C21.7332 12.2615 22.4459 11.551 23.3382 11.5547C24.2343 11.5585 24.9735 12.2634 24.9905 13.1352V13.1333Z" fill="white"/>
<path d="M1.66745 44.0387C2.55787 44.0612 3.25925 44.7906 3.24412 45.6792C3.229 46.5586 2.49549 47.2785 1.61641 47.2766C0.680609 47.2729 -0.024547 46.5304 0.00948197 45.5818C0.0435109 44.6799 0.756229 44.0144 1.66745 44.0387Z" fill="white"/>
<path d="M29.4881 47.2808C28.6128 47.2864 27.8679 46.5608 27.8528 45.689C27.8377 44.8135 28.5504 44.0748 29.4332 44.0523C30.3671 44.0298 31.1252 44.7647 31.1158 45.6815C31.1063 46.5552 30.3747 47.2752 29.4881 47.2808Z" fill="white"/>
<path d="M54.0474 34.1283C52.9572 34.1283 52.4121 33.5971 52.4121 32.5346C52.4121 31.411 52.9906 30.8491 54.1476 30.8491C55.1785 30.8491 55.694 31.351 55.694 32.3546V32.5421C55.694 33.5996 55.1458 34.1283 54.0493 34.1283H54.0474Z" fill="white"/>
<path d="M65.5172 32.5234C65.5172 33.5933 64.9815 34.1283 63.9102 34.1283C62.8062 34.1283 62.2542 33.5721 62.2542 32.4596C62.2542 31.386 62.7955 30.8491 63.8781 30.8491C64.9607 30.8491 65.5071 31.4066 65.5172 32.5215V32.5234Z" fill="white"/>
<path d="M57.3293 32.456C57.3293 31.386 57.8789 30.8511 58.9779 30.8511C60.0517 30.8511 60.5886 31.3948 60.5886 32.4822C60.5886 33.5696 60.0265 34.1184 58.9022 34.1284C57.8536 34.1284 57.3293 33.5703 57.3293 32.4541V32.456Z" fill="white"/>
<path d="M65.5172 56.9304C65.5172 57.9716 64.9966 58.4921 63.9556 58.4921C62.8213 58.4921 62.2542 57.9184 62.2542 56.771C62.2542 55.7261 62.7803 55.2036 63.8327 55.2036C64.9557 55.2036 65.5172 55.7786 65.5172 56.9285V56.9304Z" fill="white"/>
<path d="M55.6921 56.891C55.6921 57.9584 55.1451 58.4921 54.0512 58.4921C52.9572 58.4921 52.4109 57.9622 52.4121 56.9022C52.4121 55.7698 52.9856 55.2036 54.1325 55.2036C55.1722 55.2036 55.6921 55.7661 55.6921 56.891Z" fill="white"/>
<path d="M60.5886 56.9172C60.5886 57.9672 60.0712 58.4921 59.0365 58.4921C57.8984 58.4921 57.3293 57.9228 57.3293 56.7841C57.3293 55.7305 57.8499 55.2036 58.8909 55.2036C60.0227 55.2036 60.5886 55.7748 60.5886 56.9172Z" fill="white"/>
<path d="M53.9813 9.70992C52.9365 9.70992 52.4141 9.19433 52.4141 8.16315C52.4141 7.03322 52.9831 6.46826 54.1212 6.46826C55.1698 6.46826 55.6941 6.98573 55.6941 8.02066C55.6941 9.14558 55.1231 9.70804 53.9813 9.70804V9.70992Z" fill="white"/>
<path d="M62.256 8.02253C62.256 6.98635 62.7866 6.46826 63.8478 6.46826C64.9607 6.46826 65.5172 7.0176 65.5172 8.11628C65.5172 9.1787 64.9758 9.70992 63.8932 9.70992C62.8106 9.70992 62.2642 9.14746 62.2542 8.02253H62.256Z" fill="white"/>
<path d="M60.5886 8.10878C60.5886 9.1762 60.0491 9.70992 58.9703 9.70992C57.8915 9.70992 57.3445 9.1812 57.3293 8.12378C57.3293 7.0201 57.8877 6.46826 59.0043 6.46826C60.0605 6.46826 60.5886 7.0151 60.5886 8.10878Z" fill="white"/>
</g>
<defs>
<clipPath id="clip0_244_136">
<rect width="77" height="65" fill="white"/>
</clipPath>
</defs>
</svg>
