<svg width="30" height="20" viewBox="0 0 30 20" fill="none" xmlns="http://www.w3.org/2000/svg">
<path d="M29.1838 9.91382C29.1838 9.84611 29.1838 9.76916 29.1806 9.6799C29.1774 9.43059 29.171 9.15051 29.1647 8.85195C29.1391 7.99323 29.0944 7.13758 29.0241 6.33118C28.9282 5.22007 28.7876 4.29363 28.5959 3.59803C28.3936 2.87211 27.9971 2.21006 27.4459 1.67804C26.8947 1.14603 26.2082 0.762684 25.4551 0.566328C24.5508 0.33241 22.7807 0.18775 20.2885 0.0984917C19.1031 0.0554016 17.8346 0.0277006 16.5661 0.0123113C16.122 0.00615555 15.7098 0.00307787 15.3392 0H14.3998C14.0292 0.00307787 13.617 0.00615555 13.1729 0.0123113C11.9044 0.0277006 10.6359 0.0554016 9.45051 0.0984917C6.95828 0.190828 5.18497 0.335488 4.28393 0.566328C3.53051 0.762202 2.84377 1.14538 2.29253 1.67747C1.74128 2.20957 1.34489 2.87187 1.14309 3.59803C0.948181 4.29363 0.810789 5.22007 0.714934 6.33118C0.64464 7.13758 0.599908 7.99323 0.574347 8.85195C0.564761 9.15051 0.561566 9.43059 0.558371 9.6799C0.558371 9.76916 0.555176 9.84611 0.555176 9.91382V10.0862C0.555176 10.1539 0.555176 10.2308 0.558371 10.3201C0.561566 10.5694 0.567956 10.8495 0.574347 11.148C0.599908 12.0068 0.64464 12.8624 0.714934 13.6688C0.810789 14.7799 0.951376 15.7064 1.14309 16.402C1.55207 17.8763 2.75345 19.0397 4.28393 19.4337C5.18497 19.6676 6.95828 19.8122 9.45051 19.9015C10.6359 19.9446 11.9044 19.9723 13.1729 19.9877C13.617 19.9938 14.0292 19.9969 14.3998 20H15.3392C15.7098 19.9969 16.122 19.9938 16.5661 19.9877C17.8346 19.9723 19.1031 19.9446 20.2885 19.9015C22.7807 19.8092 24.554 19.6645 25.4551 19.4337C26.9856 19.0397 28.1869 17.8793 28.5959 16.402C28.7908 15.7064 28.9282 14.7799 29.0241 13.6688C29.0944 12.8624 29.1391 12.0068 29.1647 11.148C29.1742 10.8495 29.1774 10.5694 29.1806 10.3201C29.1806 10.2308 29.1838 10.1539 29.1838 10.0862V9.91382ZM26.8833 10.0739C26.8833 10.1385 26.8833 10.2093 26.8801 10.2924C26.8769 10.5325 26.8705 10.7972 26.8641 11.0834C26.8418 11.9021 26.797 12.7208 26.7299 13.4811C26.6437 14.4721 26.5223 15.2847 26.3721 15.8295C26.174 16.5405 25.5925 17.1037 24.8576 17.2915C24.1866 17.4638 22.4964 17.6023 20.199 17.6854C19.036 17.7285 17.7835 17.7562 16.5342 17.7716C16.0964 17.7778 15.6907 17.7809 15.3264 17.7809H14.4126L13.2048 17.7716C11.9555 17.7562 10.7062 17.7285 9.53997 17.6854C7.24265 17.5993 5.54921 17.4638 4.88142 17.2915C4.14654 17.1006 3.56502 16.5405 3.36692 15.8295C3.21675 15.2847 3.09533 14.4721 3.00906 13.4811C2.94196 12.7208 2.90042 11.9021 2.87486 11.0834C2.86528 10.7972 2.86208 10.5294 2.85889 10.2924C2.85889 10.2093 2.85569 10.1354 2.85569 10.0739V9.92613C2.85569 9.8615 2.85569 9.7907 2.85889 9.7076C2.86208 9.46753 2.86847 9.20283 2.87486 8.91659C2.89723 8.09787 2.94196 7.27916 3.00906 6.51893C3.09533 5.52785 3.21675 4.7153 3.36692 4.17051C3.56502 3.45953 4.14654 2.89628 4.88142 2.70853C5.55241 2.53616 7.24265 2.39766 9.53997 2.31456C10.703 2.27147 11.9555 2.24377 13.2048 2.22838C13.6426 2.22222 14.0483 2.21914 14.4126 2.21914H15.3264L16.5342 2.22838C17.7835 2.24377 19.0328 2.27147 20.199 2.31456C22.4964 2.40074 24.1898 2.53616 24.8576 2.70853C25.5925 2.89935 26.174 3.45953 26.3721 4.17051C26.5223 4.7153 26.6437 5.52785 26.7299 6.51893C26.797 7.27916 26.8386 8.09787 26.8641 8.91659C26.8737 9.20283 26.8769 9.47061 26.8801 9.7076C26.8801 9.7907 26.8833 9.86457 26.8833 9.92613V10.0739ZM12.0258 14.1243L19.4386 9.96922L12.0258 5.87565V14.1243Z" fill="white"/>
</svg>
